<svg width="80" height="80" viewBox="0 0 80 80" fill="none" xmlns="http://www.w3.org/2000/svg">
<g clip-path="url(#clip0_215_17)">
<path d="M56.1964 23.8034C51.1253 18.7322 42.8738 18.7322 37.8027 23.8034C34.4695 27.1367 33.2585 31.9396 34.438 36.3651L20.381 50.4221C20.1371 50.666 20 50.9968 20 51.3417V58.6993C20 59.4176 20.5823 59.9999 21.3006 59.9999H28.6582C29.0031 59.9999 29.3339 59.8628 29.5778 59.6189L31.4172 57.7795C31.6611 57.5356 31.7981 57.2048 31.7981 56.8599V54.4818H34.1762C34.5212 54.4818 34.852 54.3448 35.0959 54.1009L36.9353 52.2614C37.1792 52.0175 37.3162 51.6867 37.3162 51.3418V48.9637H39.6944C40.0393 48.9637 40.3701 48.8266 40.614 48.5827L43.6346 45.562C48.0605 46.7417 52.863 45.5305 56.1962 42.1973C61.2677 37.1263 61.2677 28.8748 56.1964 23.8034ZM54.3573 40.3579C51.5482 43.167 47.456 44.1257 43.6774 42.8599C43.2096 42.7031 42.6934 42.8246 42.3446 43.1734L39.1559 46.3622H36.0159C35.2976 46.3622 34.7152 46.9445 34.7152 47.6628V50.8028L33.6377 51.8804H30.4977C29.7794 51.8804 29.197 52.4627 29.197 53.181V56.321L28.1196 57.3986H22.6013V51.8805L36.8264 37.6554C37.1752 37.3066 37.2967 36.7904 37.14 36.3226C35.8743 32.544 36.833 28.4518 39.642 25.6427C43.6991 21.5859 50.3002 21.5858 54.3573 25.6427C58.4141 29.6998 58.4141 36.301 54.3573 40.3579Z" fill="black"/>
<path d="M52.5179 27.4823C50.4894 25.4537 47.1887 25.4537 45.1603 27.4823C43.1318 29.5108 43.1318 32.8112 45.1603 34.8398C47.1887 36.8684 50.4893 36.8684 52.5179 34.8398C54.5464 32.8114 54.5464 29.5109 52.5179 27.4823ZM50.6785 33.0004C49.6643 34.0145 48.014 34.0145 46.9997 33.0004C45.9855 31.9862 45.9855 30.3359 46.9997 29.3216C48.0139 28.3074 49.6642 28.3073 50.6785 29.3216C51.6927 30.3359 51.6927 31.9862 50.6785 33.0004Z" fill="black"/>
</g>
<circle cx="40" cy="40" r="38.5" stroke="black" stroke-width="3"/>
<defs>
<clipPath id="clip0_215_17">
<rect width="40" height="40" fill="white" transform="translate(20 20)"/>
</clipPath>
</defs>
</svg>
