<svg width="80" height="80" viewBox="0 0 80 80" fill="none" xmlns="http://www.w3.org/2000/svg">
<g clip-path="url(#clip0_215_122)">
<path d="M53.3183 22.0539C55.3826 22.0539 57.0558 20.379 57.0558 18.3147C57.0558 16.2504 55.3826 14.5772 53.3183 14.5772C51.2523 14.5772 49.579 16.2504 49.579 18.3147C49.579 20.379 51.2523 22.0539 53.3183 22.0539Z" fill="black"/>
<path d="M67.9335 40.7483H62.0211L62.6135 29.4482C62.8181 26.5555 60.767 23.9433 57.8495 23.511C56.371 23.2932 54.8562 23.176 53.3183 23.176C50.914 23.176 48.5774 23.4549 46.3332 23.978C46.0907 24.0341 45.8926 24.2024 45.7903 24.4235L38.764 39.4744H42.6584L46.3646 33.0653L46.9075 40.7483H12.0186V43.2962H47.0857L48.6187 65.0499H52.6797V43.7351H53.9536V65.0499H58.0162L59.5426 43.2962H67.9335V40.7483Z" fill="black"/>
<path d="M26.591 22.0539C28.657 22.0539 30.3318 20.379 30.3318 18.3147C30.3318 16.2504 28.657 14.5772 26.591 14.5772C24.5283 14.5772 22.8534 16.2504 22.8534 18.3147C22.8534 20.379 24.5283 22.0539 26.591 22.0539Z" fill="black"/>
<path d="M21.6719 29.072L22.8716 34.2666C21.7528 35.8689 20.8171 37.6114 20.0927 39.4579L33.0925 39.4595C32.3681 37.6114 31.4325 35.8688 30.312 34.2649L31.5117 29.0719L33.5612 32.623C33.9275 33.2567 34.6123 33.6857 35.3978 33.6857C36.2509 33.6857 36.9819 33.1807 37.3218 32.458L40.3135 26.0373H37.1321L35.6981 28.7353L33.4407 24.6627C33.3318 24.4664 33.1536 24.3096 32.9374 24.237C30.949 23.5505 28.8137 23.176 26.591 23.176C24.9705 23.176 23.3963 23.3773 21.8897 23.7519C19.8205 24.2667 18.3518 25.9498 18.002 27.9234L15.9575 39.4744H18.898L21.6719 29.072Z" fill="black"/>
<circle cx="40.4" cy="39.6" r="38.5" stroke="black" stroke-width="3"/>
</g>
<defs>
<clipPath id="clip0_215_122">
<rect width="80" height="80" fill="white"/>
</clipPath>
</defs>
</svg>
