<svg width="40" height="40" viewBox="0 0 40 40" fill="none" xmlns="http://www.w3.org/2000/svg">
<path d="M13 20.0002C13 18.694 12.1652 17.5827 11 17.1709V15.6C11 15.0399 11 14.7599 11.109 14.546C11.2049 14.3579 11.3579 14.2049 11.546 14.109C11.7599 14 12.0399 14 12.6 14H27.4C27.9601 14 28.2401 14 28.454 14.109C28.6422 14.2049 28.7951 14.3579 28.891 14.546C29 14.7599 29 15.0399 29 15.6V17.1707C27.8348 17.5825 27 18.694 27 20.0002C27 21.3064 27.8348 22.4175 29 22.8293V24.4C29 24.9601 29 25.2401 28.891 25.454C28.7951 25.6422 28.6422 25.7951 28.454 25.891C28.2401 26 27.9601 26 27.4 26H12.6C12.0399 26 11.7599 26 11.546 25.891C11.3579 25.7951 11.2049 25.6422 11.109 25.454C11 25.2401 11 24.9601 11 24.4V22.8295C12.1652 22.4177 13 21.3064 13 20.0002Z" stroke="black" stroke-width="2" stroke-linecap="round" stroke-linejoin="round"/>
<circle cx="20" cy="20" r="19" stroke="black" stroke-width="2"/>
</svg>
